<svg width="40" height="40" viewBox="0 0 40 40" fill="none" xmlns="http://www.w3.org/2000/svg">
  <!-- Heart shape -->
  <path d="M20 10C20 6 16 4 13 4C10 4 7 6 7 9C7 13 13 19 13 19C13 19 19 13 19 9C19 6 17.5 5 16 4C14.5 4 13 5.5 13 7C13 5.5 11.5 4 10 4C7 4 5.5 6 5.5 9C5.5 13 11.5 19 11.5 19" fill="#14b8a6" stroke="#14b8a6" stroke-width="1.5" stroke-linecap="round" stroke-linejoin="round" transform="translate(7, 2)"/>
  
  <!-- Growth chart -->
  <path d="M8 28L12 24L16 26L20 20L24 22" stroke="#14b8a6" stroke-width="2.5" stroke-linecap="round" stroke-linejoin="round"/>
  <circle cx="12" cy="24" r="2.5" fill="#f97316"/>
  <circle cx="16" cy="26" r="2.5" fill="#f97316"/>
  <circle cx="20" cy="20" r="2.5" fill="#f97316"/>
  <circle cx="24" cy="22" r="2.5" fill="#f97316"/>
</svg>
