<svg width="200" height="60" viewBox="0 0 200 60" fill="none" xmlns="http://www.w3.org/2000/svg">
  <!-- Heart + Growth Chart Icon -->
  <g id="logo-mark">
    <!-- Heart shape -->
    <path d="M30 18C30 12 24 8 20 8C16 8 12 12 12 16C12 22 20 30 20 30C20 30 28 22 28 16C28 12 26 10 24 8C22 8 20 10 20 12C20 10 18 8 16 8C12 8 10 12 10 16C10 22 18 30 18 30" fill="#14b8a6" stroke="#14b8a6" stroke-width="1.5" stroke-linecap="round" stroke-linejoin="round"/>
    
    <!-- Growth chart lines -->
    <path d="M12 38L16 34L20 36L24 30L28 32" stroke="#14b8a6" stroke-width="2" stroke-linecap="round" stroke-linejoin="round"/>
    <circle cx="16" cy="34" r="2" fill="#fb923c"/>
    <circle cx="20" cy="36" r="2" fill="#fb923c"/>
    <circle cx="24" cy="30" r="2" fill="#fb923c"/>
    <circle cx="28" cy="32" r="2" fill="#fb923c"/>
  </g>
  
  <!-- Text: STUNTCARE -->
  <text x="45" y="32" font-family="Inter, system-ui, sans-serif" font-size="24" font-weight="700" fill="#f1f5f9">
    STUNTCARE
  </text>
</svg>
